HIERARCHY
ROOT Hips
{
    OFFSET 0.000000 0.000000 0.000000
    CHANNELS 6 Xposition Yposition Zposition Zrotation Xrotation Yrotation
    JOINT Spine
    {
        OFFSET 0.000002 7.756658 -0.000012
        CHANNELS 3 Zrotation Xrotation Yrotation
        JOINT Spine1
        {
            OFFSET 0.000007 20.811090 -0.000045
            CHANNELS 3 Zrotation Xrotation Yrotation
            JOINT Neck
            {
                OFFSET 0.000007 22.515327 -0.000037
                CHANNELS 3 Zrotation Xrotation Yrotation
                JOINT Head
                {
                    OFFSET -0.000005 14.501746 1.902187
                    CHANNELS 3 Zrotation Xrotation Yrotation
                    End Site
                    {
                        OFFSET 0.000000 19.022141 0.000000
                    }
                }
            }
            JOINT LeftShoulder
            {
                OFFSET 3.797828 16.121201 -0.677287
                CHANNELS 3 Zrotation Xrotation Yrotation
                JOINT LeftArm
                {
                    OFFSET 11.576579 0.000005 0.000018
                    CHANNELS 3 Zrotation Xrotation Yrotation
                    JOINT LeftForeArm
                    {
                        OFFSET 29.906395 0.000006 -0.000006
                        CHANNELS 3 Zrotation Xrotation Yrotation
                        JOINT LeftHand
                        {
                            OFFSET 24.318306 0.000006 0.000010
                            CHANNELS 3 Zrotation Xrotation Yrotation
                            JOINT LeftHandThumb1
                            {
                                OFFSET 1.987813 -2.258873 3.162430
                                CHANNELS 3 Zrotation Xrotation Yrotation
                                JOINT LeftHandThumb2
                                {
                                    OFFSET 3.002280 0.000015 -0.000003
                                    CHANNELS 3 Zrotation Xrotation Yrotation
                                    JOINT LeftHandThumb3
                                    {
                                        OFFSET 2.566101 -0.000002 0.000004
                                        CHANNELS 3 Zrotation Xrotation Yrotation
                                        End Site
                                        {
                                            OFFSET 2.440626 0.000000 0.000000
                                        }
                                    }
                                }
                            }
                            JOINT LeftHandIndex1
                            {
                                OFFSET 8.131968 0.000005 3.162434
                                CHANNELS 3 Zrotation Xrotation Yrotation
                                JOINT LeftHandIndex2
                                {
                                    OFFSET 4.517768 -0.000005 0.000003
                                    CHANNELS 3 Zrotation Xrotation Yrotation
                                    JOINT LeftHandIndex3
                                    {
                                        OFFSET 2.258862 0.000007 -0.000003
                                        CHANNELS 3 Zrotation Xrotation Yrotation
                                        End Site
                                        {
                                            OFFSET 2.148437 0.000000 0.000000
                                        }
                                    }
                                }
                            }
                            JOINT LeftHandMiddle1
                            {
                                OFFSET 8.131959 0.000009 1.048122
                                CHANNELS 3 Zrotation Xrotation Yrotation
                                JOINT LeftHandMiddle2
                                {
                                    OFFSET 4.969531 -0.000002 0.000006
                                    CHANNELS 3 Zrotation Xrotation Yrotation
                                    JOINT LeftHandMiddle3
                                    {
                                        OFFSET 2.710667 -0.000010 0.000006
                                        CHANNELS 3 Zrotation Xrotation Yrotation
                                        End Site
                                        {
                                            OFFSET 2.578118 0.000000 0.000000
                                        }
                                    }
                                }
                            }
                            JOINT LeftHandRing1
                            {
                                OFFSET 7.680212 -0.000004 -1.048116
                                CHANNELS 3 Zrotation Xrotation Yrotation
                                JOINT LeftHandRing2
                                {
                                    OFFSET 4.517768 -0.000004 0.000004
                                    CHANNELS 3 Zrotation Xrotation Yrotation
                                    JOINT LeftHandRing3
                                    {
                                        OFFSET 2.258862 0.000008 -0.000000
                                        CHANNELS 3 Zrotation Xrotation Yrotation
                                        End Site
                                        {
                                            OFFSET 2.148437 0.000000 0.000000
                                        }
                                    }
                                }
                            }
                            JOINT LeftHandPinky1
                            {
                                OFFSET 7.228394 0.000009 -3.162429
                                CHANNELS 3 Zrotation Xrotation Yrotation
                                JOINT LeftHandPinky2
                                {
                                    OFFSET 3.614196 0.000003 0.000003
                                    CHANNELS 3 Zrotation Xrotation Yrotation
                                    JOINT LeftHandPinky3
                                    {
                                        OFFSET 1.807101 0.000006 -0.000000
                                        CHANNELS 3 Zrotation Xrotation Yrotation
                                        End Site
                                        {
                                            OFFSET 1.718745 0.000000 0.000000
                                        }
                                    }
                                }
                            }
                        }
                    }
                }
            }
            JOINT RightShoulder
            {
                OFFSET -3.797829 16.121201 -0.677311
                CHANNELS 3 Zrotation Xrotation Yrotation
                JOINT RightArm
                {
                    OFFSET -11.576583 0.000003 -0.000004
                    CHANNELS 3 Zrotation Xrotation Yrotation
                    JOINT RightForeArm
                    {
                        OFFSET -29.906404 0.000003 -0.000004
                        CHANNELS 3 Zrotation Xrotation Yrotation
                        JOINT RightHand
                        {
                            OFFSET -24.318310 -0.000012 0.000006
                            CHANNELS 3 Zrotation Xrotation Yrotation
                            JOINT RightHandThumb1
                            {
                                OFFSET -1.987830 -2.258884 3.162428
                                CHANNELS 3 Zrotation Xrotation Yrotation
                                JOINT RightHandThumb2
                                {
                                    OFFSET -3.002295 -0.000003 0.000001
                                    CHANNELS 3 Zrotation Xrotation Yrotation
                                    JOINT RightHandThumb3
                                    {
                                        OFFSET -2.566098 -0.000004 0.000001
                                        CHANNELS 3 Zrotation Xrotation Yrotation
                                        End Site
                                        {
                                            OFFSET -2.440626 0.000000 0.000000
                                        }
                                    }
                                }
                            }
                            JOINT RightHandIndex1
                            {
                                OFFSET -8.131980 -0.000009 3.162429
                                CHANNELS 3 Zrotation Xrotation Yrotation
                                JOINT RightHandIndex2
                                {
                                    OFFSET -4.517748 -0.000001 0.000001
                                    CHANNELS 3 Zrotation Xrotation Yrotation
                                    JOINT RightHandIndex3
                                    {
                                        OFFSET -2.258874 -0.000001 0.000001
                                        CHANNELS 3 Zrotation Xrotation Yrotation
                                        End Site
                                        {
                                            OFFSET -2.148437 0.000000 0.000000
                                        }
                                    }
                                }
                            }
                            JOINT RightHandMiddle1
                            {
                                OFFSET -8.131950 -0.000004 1.048122
                                CHANNELS 3 Zrotation Xrotation Yrotation
                                JOINT RightHandMiddle2
                                {
                                    OFFSET -4.969543 0.000001 0.000001
                                    CHANNELS 3 Zrotation Xrotation Yrotation
                                    JOINT RightHandMiddle3
                                    {
                                        OFFSET -2.710669 0.000001 0.000001
                                        CHANNELS 3 Zrotation Xrotation Yrotation
                                        End Site
                                        {
                                            OFFSET -2.578118 0.000000 0.000000
                                        }
                                    }
                                }
                            }
                            JOINT RightHandRing1
                            {
                                OFFSET -7.680168 -0.000001 -1.048115
                                CHANNELS 3 Zrotation Xrotation Yrotation
                                JOINT RightHandRing2
                                {
                                    OFFSET -4.517748 -0.000001 0.000001
                                    CHANNELS 3 Zrotation Xrotation Yrotation
                                    JOINT RightHandRing3
                                    {
                                        OFFSET -2.258874 -0.000001 0.000000
                                        CHANNELS 3 Zrotation Xrotation Yrotation
                                        End Site
                                        {
                                            OFFSET -2.148437 0.000000 0.000000
                                        }
                                    }
                                }
                            }
                            JOINT RightHandPinky1
                            {
                                OFFSET -7.228392 0.000002 -3.162425
                                CHANNELS 3 Zrotation Xrotation Yrotation
                                JOINT RightHandPinky2
                                {
                                    OFFSET -3.614207 -0.000005 -0.000002
                                    CHANNELS 3 Zrotation Xrotation Yrotation
                                    JOINT RightHandPinky3
                                    {
                                        OFFSET -1.807082 0.000007 0.000007
                                        CHANNELS 3 Zrotation Xrotation Yrotation
                                        End Site
                                        {
                                            OFFSET -1.718745 0.000000 0.000000
                                        }
                                    }
                                }
                            }
                        }
                    }
                }
            }
        }
    }
    JOINT LeftUpLeg
    {
        OFFSET 9.511065 -0.000002 0.000012
        CHANNELS 3 Zrotation Xrotation Yrotation
        JOINT LeftLeg
        {
            OFFSET 0.000001 -43.875633 0.000010
            CHANNELS 3 Zrotation Xrotation Yrotation
            JOINT LeftFoot
            {
                OFFSET 0.000005 -35.354156 -0.000019
                CHANNELS 3 Zrotation Xrotation Yrotation
                JOINT LeftToeBase
                {
                    OFFSET -0.000000 -6.182192 14.266604
                    CHANNELS 3 Zrotation Xrotation Yrotation
                    End Site
                    {
                        OFFSET 0.000000 0.000000 3.804428
                    }
                }
            }
        }
    }
    JOINT RightUpLeg
    {
        OFFSET -9.511065 0.000002 -0.000012
        CHANNELS 3 Zrotation Xrotation Yrotation
        JOINT RightLeg
        {
            OFFSET -0.000003 -43.875633 0.000002
            CHANNELS 3 Zrotation Xrotation Yrotation
            JOINT RightFoot
            {
                OFFSET -0.000007 -35.354145 0.000018
                CHANNELS 3 Zrotation Xrotation Yrotation
                JOINT RightToeBase
                {
                    OFFSET 0.000000 -6.182191 14.266602
                    CHANNELS 3 Zrotation Xrotation Yrotation
                    End Site
                    {
                        OFFSET 0.000000 0.000000 3.804428
                    }
                }
            }
        }
    }
}
MOTION
Frames:    4
Frame Time:    0.002778
23.017996    87.551430    596.414856    1.841357    -4.942331    -165.132645    -0.363158    7.437865    -5.125499    -1.815780    7.434314    -4.937490    6.900759    8.347952    -17.084906    6.900759    8.347951    -17.084904    3.968335    -0.680270    1.157408    -59.375149    4.002131    -12.444770    -52.283550    14.137271    -75.555305    2.239340    -0.087213    10.889961    47.448231    38.866413    -34.355034    -35.000008    0.000010    -0.000004    -0.000000    0.000000    -0.000000    0.000000    9.999998    -0.000003    -0.000000    0.000000    -0.000000    -0.000000    0.000000    -0.000000    -0.000000    0.000000    -0.000000    -0.000000    0.000000    -0.000000    -0.000000    0.000000    -0.000000    -0.000000    0.000000    -0.000000    -0.000000    0.000000    -0.000000    -0.000000    0.000000    -0.000000    -0.000000    -10.000000    -0.000003    -0.000000    0.000000    -0.000000    -0.000000    0.000000    -0.000000    -8.406716    3.386530    -0.387703    72.334702    6.445454    -6.441115    27.171595    11.403259    51.709431    -48.606731    13.878011    -12.145350    -47.448219    38.866428    34.355042    35.000008    0.000001    0.000002    -0.000000    0.000000    -0.000000    -0.000000    10.000001    0.000003    -0.000000    0.000000    -0.000000    -0.000000    0.000000    -0.000000    -0.000000    0.000000    -0.000000    -0.000000    0.000000    -0.000000    -0.000000    0.000000    -0.000000    -0.000000    0.000000    -0.000000    -0.000000    0.000000    -0.000000    -0.000000    0.000000    -0.000000    0.000003    -10.000000    0.000000    -0.000000    0.000000    -0.000000    -0.000000    0.000000    -0.000000    18.671288    -23.459900    0.241287    -0.000003    42.102524    0.000002    -14.126819    -21.052134    3.919347    -0.000000    -0.861354    -0.000001    -12.769568    -30.822021    -3.372198    -0.000001    52.079781    0.000001    12.120096    -20.996159    -5.994419    -0.000000    -3.452465    0.000000    
22.995855    87.519318    596.422058    1.792169    -4.956058    -165.513657    -0.362724    7.458068    -5.230647    -1.813609    7.454521    -5.042357    6.875865    8.440248    -17.008816    6.875867    8.440250    -17.008816    3.970010    -0.687849    1.173825    -59.376297    3.888502    -12.281052    -52.236946    14.222240    -75.534966    2.088860    -0.117797    10.829744    47.448227    38.866428    -34.355030    -35.000015    0.000002    -0.000003    -0.000000    0.000000    -0.000000    0.000003    10.000002    -0.000000    -0.000000    0.000000    -0.000000    -0.000000    0.000000    -0.000000    -0.000000    0.000000    -0.000000    -0.000000    0.000000    -0.000000    -0.000000    0.000000    -0.000000    -0.000000    0.000000    -0.000000    -0.000000    0.000000    -0.000000    -0.000000    0.000000    -0.000000    0.000003    -10.000001    0.000000    -0.000000    0.000000    -0.000000    -0.000000    0.000000    -0.000000    -8.441758    3.320352    -0.377904    72.544144    6.370160    -6.463253    27.194122    10.680496    50.924397    -48.946026    13.942554    -12.059528    -47.448215    38.866432    34.355042    34.999996    -0.000005    -0.000004    -0.000000    0.000000    -0.000000    0.000003    10.000000    0.000002    -0.000000    0.000000    -0.000000    -0.000000    0.000000    -0.000000    -0.000000    0.000000    -0.000000    -0.000000    0.000000    -0.000000    -0.000000    0.000000    -0.000000    -0.000000    0.000000    -0.000000    -0.000000    0.000000    -0.000000    -0.000000    0.000000    -0.000000    0.000003    -9.999998    -0.000001    -0.000000    0.000000    -0.000000    -0.000000    0.000000    -0.000000    18.672846    -23.347836    0.304658    -0.000002    42.230587    0.000001    -14.224685    -21.240383    4.119596    -0.000000    -0.846554    -0.000001    -12.766756    -30.977415    -3.330451    -0.000003    52.158333    0.000002    12.000758    -20.974535    -5.728694    -0.000000    -3.469440    0.000000    
22.993008    87.497375    596.402527    1.746596    -4.959054    -165.989639    -0.369507    7.468317    -5.300462    -1.847524    7.464630    -5.108392    6.854146    8.550835    -16.927689    6.854146    8.550837    -16.927683    3.999835    -0.655014    1.243402    -59.336353    3.820115    -12.131129    -52.230820    14.307044    -75.509598    1.958900    -0.143407    10.804090    47.448227    38.866432    -34.355022    -35.000015    0.000003    -0.000010    -0.000000    0.000000    -0.000000    0.000000    10.000001    -0.000002    -0.000000    0.000000    -0.000000    -0.000000    0.000000    -0.000000    -0.000000    0.000000    -0.000000    -0.000000    0.000000    -0.000000    -0.000000    0.000000    -0.000000    -0.000000    0.000000    -0.000000    -0.000000    0.000000    -0.000000    -0.000000    0.000000    -0.000000    0.000006    -9.999998    -0.000006    -0.000000    0.000000    -0.000000    -0.000000    0.000000    -0.000000    -8.448816    3.272982    -0.368950    72.775116    6.357522    -6.460827    27.162428    9.994042    50.165688    -49.312855    14.010181    -11.964526    -47.448212    38.866428    34.355042    35.000008    0.000000    0.000001    -0.000000    0.000000    -0.000000    0.000000    9.999999    -0.000001    -0.000000    0.000000    -0.000000    -0.000000    0.000000    -0.000000    -0.000000    0.000000    -0.000000    -0.000000    0.000000    -0.000000    -0.000000    0.000000    -0.000000    -0.000000    0.000000    -0.000000    -0.000000    0.000000    -0.000000    -0.000000    0.000000    -0.000000    -0.000000    -9.999999    -0.000001    -0.000000    0.000000    -0.000000    -0.000000    0.000000    -0.000000    18.720207    -23.166096    0.454895    -0.000001    42.341202    0.000003    -14.250032    -21.404350    4.358257    0.000000    -0.855879    0.000003    -12.692031    -31.132307    -3.203920    0.000002    52.218674    -0.000002    11.902049    -20.943630    -5.436102    0.000000    -3.477369    -0.000000    
22.974247    87.470764    596.399597    1.702772    -4.952462    -166.423889    -0.370711    7.489021    -5.375697    -1.853543    7.485301    -5.182467    6.832149    8.661453    -16.845734    6.832147    8.661442    -16.845728    3.992448    -0.653650    1.259763    -59.297050    3.754707    -11.991335    -52.225746    14.373343    -75.496620    1.825192    -0.169611    10.779634    47.448204    38.866417    -34.355030    -35.000000    0.000006    -0.000004    -0.000000    0.000000    -0.000000    -0.000004    10.000000    0.000004    -0.000000    0.000000    -0.000000    -0.000000    0.000000    -0.000000    -0.000000    0.000000    -0.000000    -0.000000    0.000000    -0.000000    -0.000000    0.000000    -0.000000    -0.000000    0.000000    -0.000000    -0.000000    0.000000    -0.000000    -0.000000    0.000000    -0.000000    -0.000001    -9.999998    -0.000007    -0.000000    0.000000    -0.000000    -0.000000    0.000000    -0.000000    -8.466930    3.211779    -0.356439    72.982986    6.314655    -6.458915    27.109919    9.236621    49.402519    -49.630161    14.022691    -11.846581    -47.448219    38.866428    34.355042    34.999996    -0.000005    -0.000003    -0.000000    0.000000    -0.000000    -0.000000    10.000001    0.000002    -0.000000    0.000000    -0.000000    -0.000000    0.000000    -0.000000    -0.000000    0.000000    -0.000000    -0.000000    0.000000    -0.000000    -0.000000    0.000000    -0.000000    -0.000000    0.000000    -0.000000    -0.000000    0.000000    -0.000000    -0.000000    0.000000    -0.000000    0.000000    -9.999998    0.000001    -0.000000    0.000000    -0.000000    -0.000000    0.000000    -0.000000    18.747299    -22.984621    0.556402    -0.000000    42.425312    0.000001    -14.344756    -21.602346    4.569720    -0.000000    -0.855679    -0.000000    -12.647222    -31.272478    -3.116700    0.000002    52.274136    -0.000003    11.789598    -20.904638    -5.158862    -0.000000    -3.468893    -0.000000    
